<?xml version="1.0" standalone="no"?>
<!DOCTYPE svg PUBLIC "-//W3C//DTD SVG 20010904//EN"
 "http://www.w3.org/TR/2001/REC-SVG-20010904/DTD/svg10.dtd">
<svg version="1.0" xmlns="http://www.w3.org/2000/svg"
 width="663.000000pt" height="680.000000pt" viewBox="0 0 663.000000 680.000000"
 preserveAspectRatio="xMidYMid meet">

<g transform="translate(0.000000,680.000000) scale(0.100000,-0.100000)"
fill="#FFF" stroke="none">
<path d="M935 6658 c-467 -54 -851 -101 -853 -102 -4 -5 15 -157 21 -162 3 -3
351 33 773 81 423 47 780 86 794 88 22 2 35 -16 123 -168 92 -156 417 -757
432 -797 7 -17 -26 -18 -565 -20 l-573 -3 1069 -1111 1068 -1111 -2 -1419 c-2
-781 -5 -1438 -8 -1460 l-6 -42 -356 -87 c-934 -228 -907 -221 -910 -245 -2
-12 -1 -32 2 -45 l6 -23 877 -6 c483 -3 1128 -2 1433 2 l555 7 0 44 0 44 -630
154 c-346 85 -632 157 -635 159 -2 3 -6 660 -8 1462 l-4 1457 688 715 c378
393 692 717 697 719 4 1 35 -16 68 -39 84 -59 230 -126 329 -150 120 -30 307
-37 428 -16 118 21 248 69 354 132 111 66 258 212 326 323 187 306 187 686 0
992 -68 111 -215 257 -326 323 -179 106 -361 152 -572 143 -161 -7 -266 -33
-405 -102 -201 -98 -356 -250 -450 -440 -51 -102 -95 -261 -95 -341 l0 -54
-189 0 -188 0 -32 64 c-57 116 -169 196 -305 217 -162 26 -337 -62 -413 -206
l-28 -55 -493 2 -494 3 -150 290 c-417 807 -460 885 -482 884 -11 -1 -403 -46
-871 -101z m4785 -259 c101 -16 237 -65 325 -117 109 -64 255 -211 314 -315
193 -342 145 -738 -124 -1025 -251 -270 -671 -357 -1018 -212 -257 107 -451
327 -523 595 -27 98 -27 322 0 420 120 445 565 729 1026 654z m-1739 -712 c21
-14 39 -38 48 -63 13 -37 12 -44 -5 -80 -38 -77 -135 -95 -195 -35 -55 56 -44
140 24 181 42 26 86 25 128 -3z m430 -177 l169 0 0 -54 c0 -117 72 -324 153
-444 l36 -53 -952 7 c-524 3 -978 9 -1011 13 l-59 6 -124 240 c-69 132 -127
246 -130 253 -4 9 91 12 455 12 l459 0 5 -70 c10 -135 94 -252 226 -317 52
-26 66 -28 172 -28 107 0 119 2 175 29 77 38 159 120 192 193 20 43 28 79 31
141 4 67 7 82 19 78 8 -3 91 -6 184 -6z m-1989 -277 l137 -258 -294 -5 c-161
-3 -296 -7 -299 -10 -5 -5 605 -631 1128 -1158 l261 -262 708 707 708 708 40
-45 c21 -25 39 -48 39 -52 0 -4 -317 -337 -704 -740 l-704 -732 5 -1505 c3
-829 8 -1509 12 -1513 4 -4 223 -60 487 -125 l481 -118 -481 -8 c-265 -5 -735
-5 -1046 -1 l-565 7 488 121 487 120 0 606 c0 333 3 1012 6 1510 l6 905 -947
985 c-521 542 -977 1015 -1013 1053 l-66 67 494 0 495 0 137 -257z m2036 -382
c-4 -12 -1062 -1088 -1066 -1085 -2 1 178 247 400 547 l403 546 133 1 c80 0
132 -4 130 -9z"/>
<path d="M5430 6313 c-14 -2 -61 -15 -105 -28 -107 -32 -146 -70 -153 -150 -6
-74 21 -128 139 -275 118 -149 165 -197 205 -210 70 -24 100 23 113 177 6 59
15 158 22 218 7 61 9 122 5 138 -20 80 -135 146 -226 130z"/>
<path d="M5855 6224 c-76 -39 -107 -102 -165 -328 -46 -179 -49 -231 -19 -270
24 -31 55 -33 107 -7 53 26 341 204 376 232 80 64 72 201 -17 274 -133 110
-209 137 -282 99z"/>
<path d="M4904 6021 c-54 -25 -94 -76 -129 -164 -70 -176 -13 -267 179 -287
121 -12 403 3 443 24 70 36 52 100 -55 189 -37 30 -110 94 -162 142 -52 48
-109 94 -127 101 -44 19 -100 17 -149 -5z"/>
<path d="M6175 5688 c-64 -12 -288 -74 -340 -94 -52 -20 -95 -62 -95 -91 0
-13 10 -34 23 -46 32 -33 416 -229 458 -234 69 -10 152 35 185 100 9 16 22 68
30 114 18 112 6 170 -41 212 -55 48 -116 59 -220 39z"/>
<path d="M5195 5525 c-5 -3 -81 -8 -167 -14 -176 -10 -213 -23 -258 -88 -21
-30 -25 -48 -25 -102 1 -58 6 -76 44 -149 50 -96 91 -132 155 -139 88 -10 164
42 327 223 127 142 139 159 139 206 0 54 -26 68 -125 67 -44 0 -84 -2 -90 -4z"/>
<path d="M5421 5398 c-19 -18 -52 -60 -74 -93 -22 -33 -76 -108 -120 -168 -86
-116 -99 -155 -77 -221 26 -80 82 -120 208 -151 169 -41 259 14 270 165 4 64
-42 377 -64 429 -34 80 -86 94 -143 39z"/>
<path d="M5634 5415 c-32 -22 -35 -62 -13 -166 11 -52 31 -150 44 -217 28
-140 47 -178 105 -211 91 -51 225 -14 338 95 52 50 58 64 52 134 -3 40 -45
103 -95 144 -69 57 -263 185 -320 212 -58 28 -83 30 -111 9z"/>
</g>
</svg>
